<svg id="Layer_1" data-name="Layer 1" xmlns="http://www.w3.org/2000/svg" viewBox="0 0 64 64"><defs><style>.cls-1{fill:none;stroke:#000;stroke-linecap:round;stroke-linejoin:round;stroke-width:2px;}</style></defs><title>Icon Line</title><g id="Line"><path class="cls-1" d="M58,19.6a1.34,1.34,0,0,1,1.86,1.54l-1.27,4.92L53.12,47.18H10.88L5.45,26.06,4.18,21.14A1.34,1.34,0,0,1,6,19.6l5.55,2.6,8.24,3.86,6.11-8.75,5-7.15a1.33,1.33,0,0,1,2.19,0l5,7.15,6.11,8.75,8.24-3.86Z"/><path class="cls-1" d="M23.14,21.21,12.23,15.87a1.33,1.33,0,0,0-1.87,1.53l.83,3.21.4,1.59,8.25,3.86Z"/><path class="cls-1" d="M40.87,21.2l10.9-5.33a1.33,1.33,0,0,1,1.88,1.53l-.83,3.21-.4,1.59-8.24,3.86Z"/><rect class="cls-1" x="7.78" y="47.18" width="48.44" height="7.23" rx="2.33"/><polygon class="cls-1" points="36.28 29.58 34.13 35.38 31.99 41.19 29.86 35.38 27.72 29.58 29.86 25.87 31.99 22.16 34.13 25.87 36.28 29.58"/></g></svg>